<?xml version="1.0" encoding="UTF-8" standalone="no"?>
<!-- Created with Inkscape (http://www.inkscape.org/) -->

<svg
   width="800"
   height="350"
   viewBox="0 0 211.66666 92.604164"
   version="1.1"
   id="svg1"
   xml:space="preserve"
   inkscape:export-filename="bitmap.svg"
   inkscape:export-xdpi="96"
   inkscape:export-ydpi="96"
   xmlns:inkscape="http://www.inkscape.org/namespaces/inkscape"
   xmlns:sodipodi="http://sodipodi.sourceforge.net/DTD/sodipodi-0.dtd"
   xmlns="http://www.w3.org/2000/svg"
   xmlns:svg="http://www.w3.org/2000/svg"><sodipodi:namedview
     id="namedview1"
     pagecolor="#000000"
     bordercolor="#000000"
     borderopacity="0.25"
     inkscape:showpageshadow="2"
     inkscape:pageopacity="0.0"
     inkscape:pagecheckerboard="true"
     inkscape:deskcolor="#d1d1d1"
     inkscape:document-units="px"><inkscape:page
       x="0"
       y="0"
       width="211.66666"
       height="92.604164"
       id="page2"
       margin="0"
       bleed="0" /></sodipodi:namedview><defs
     id="defs1" /><g
     inkscape:label="Layer 1"
     inkscape:groupmode="layer"
     id="layer1"><path
       style="fill:#ffffff;fill-opacity:1"
       d="m 44.194114,87.380975 c -0.511105,-0.1794 -4.321105,-2.57985 -8.466666,-5.33433 -6.790705,-4.51203 -20.280949,-13.43807 -28.3071749,-18.7299 -3.9077,-2.57642 -4.632408,-3.32697 -4.623331,-4.78817 0.0094,-1.51262 0.633852,-2.33321 2.958955,-3.88833 l 1.976102,-1.3217 1.100908,0.67162 c 2.0399219,1.24448 1.9659219,1.14568 1.2371759,1.65178 -2.7796149,1.93038 -2.7661599,2.6299 0.08476,4.4068 1.067029,0.66505 2.093078,1.20918 2.28011,1.20918 0.187031,0 1.02605,-0.41672 1.864486,-0.92604 0.838436,-0.50932 1.687448,-0.92401 1.886694,-0.92153 0.199245,0.002 0.942267,0.34597 1.651159,0.76332 l 1.288895,0.7588 -1.884207,1.10044 c -1.036314,0.60524 -1.879166,1.18448 -1.873005,1.2872 0.0062,0.10272 2.595771,1.84722 5.754687,3.87666 3.158917,2.02944 8.660516,5.59488 12.225776,7.92321 10.811966,7.06086 11.592095,7.52933 12.853169,7.71844 1.970361,0.29547 1.481833,0.56887 16.118708,-9.02059 4.62011,-3.02691 7.46136,-4.84891 12.96458,-8.31379 1.45521,-0.91622 2.74859,-1.75981 2.87419,-1.87466 0.1256,-0.11484 -0.55901,-0.70608 -1.52135,-1.31385 -0.96234,-0.60778 -1.74972,-1.13611 -1.74972,-1.17407 0,-0.038 0.58318,-0.43155 1.29594,-0.87463 l 1.29594,-0.8056 1.7755,1.08141 1.7755,1.08142 1.36033,-0.74952 c 2.18797,-1.20552 3.08013,-1.96536 3.08013,-2.62329 0,-0.58017 -0.82581,-1.52025 -2.05329,-2.33741 -0.59564,-0.39653 -0.59236,-0.40196 0.80301,-1.32843 l 1.40109,-0.93028 1.81444,1.22171 c 2.37514,1.59924 2.92954,2.35902 2.92954,4.01482 0,1.13498 -0.117,1.41408 -0.92604,2.20908 -0.50933,0.50049 -2.73625,2.08005 -4.94872,3.51014 -4.11156,2.65762 -11.12696,7.22565 -24.6191,16.03057 -10.431082,6.80729 -10.555259,6.87466 -12.865929,6.97989 -1.050265,0.0478 -2.295188,-0.0585 -2.813242,-0.24037 z M 45.0763,75.270065 c -0.462465,-0.14249 -1.712621,-0.75094 -2.778125,-1.35213 C 39.194714,72.166885 3.6440591,48.308672 2.9898171,47.537912 c -0.830072,-0.9779 -0.814108,-2.74595 0.03485,-3.85898 0.647423,-0.84882 7.4894989,-5.43976 8.1071019,-5.43976 0.44582,0 2.903092,1.57592 2.903092,1.86184 0,0.12054 -0.208359,0.28693 -0.463021,0.36975 -0.254661,0.0828 -1.591643,0.89564 -2.971071,1.80627 -2.6143629,1.72587 -3.3211869,2.64372 -2.7591319,3.58287 0.277372,0.46347 2.7218169,2.14908 10.0296819,6.916153 2.328333,1.51882 9.055364,5.97446 14.948958,9.90143 5.893593,3.92697 11.310936,7.36918 12.038541,7.64938 1.568137,0.60387 3.263819,0.49437 4.84629,-0.31295 0.927232,-0.47304 4.012202,-2.47384 18.172462,-11.78605 4.21674,-2.77305 8.67404,-5.65347 13.09687,-8.463533 6.05668,-3.84813 6.12908,-4.36935 1.04866,-7.54943 l -2.70644,-1.69409 0.75952,-0.60561 c 1.3585,-1.08323 2.14735,-1.28463 3.10004,-0.79147 1.80127,0.93244 6.16868,3.89933 6.84602,4.65067 0.76591,0.8496 1.16115,2.2787 0.90855,3.28513 -0.30833,1.22851 -0.53687,1.3958 -14.05739,10.290123 -20.40318,13.42199 -25.4004,16.66073 -26.836054,17.39265 -1.31751,0.67169 -3.67861,0.92287 -4.961041,0.52776 z m -0.614362,-18.16569 c -0.218282,-0.0787 -3.886967,-2.48028 -8.152635,-5.33692 -4.265669,-2.856653 -12.302387,-8.202043 -17.859375,-11.878653 -5.556987,-3.67661 -10.4905669,-7.09791 -10.9635089,-7.60289 -1.633698,-1.74435 -1.012072,-3.75798 1.653645,-5.35664 0.8731249,-0.52363 2.5995319,-1.63084 3.8364589,-2.46048 1.236927,-0.82963 3.499114,-2.31788 5.027083,-3.30723 1.527968,-0.98934 4.444999,-2.88995 6.482291,-4.22358 2.037292,-1.33363 4.954323,-3.23746 6.482291,-4.23072 1.527969,-0.993271 4.802188,-3.1397916 7.276042,-4.7700496 5.957916,-3.926238 6.507304,-4.198425 8.466666,-4.194688 l 1.5875,0.003 18.471559,12.3262806 c 10.15936,6.77946 18.69977,12.53281 18.97868,12.78522 0.66954,0.60593 0.92229,2.05479 0.52554,3.01262 -0.1943,0.46909 -0.89746,1.12063 -1.81621,1.68287 -1.91493,1.17186 -2.52729,1.35113 -3.2751,0.95878 -0.33292,-0.17467 -7.83736,-5.21166 -16.67653,-11.19331 C 55.667155,17.336345 48.02608,12.228257 47.52616,11.966684 46.865851,11.62119 46.396392,11.548815 45.809948,11.702101 c -1.087037,0.284131 -17.176777,11.105134 -18.01629,12.116684 -0.853992,1.029 -0.158605,2.77869 1.104345,2.77869 0.466339,0 7.586989,-4.69572 12.78581,-8.43163 3.095003,-2.22408 4.704607,-3.05055 5.535188,-2.84208 0.326354,0.0819 3.143504,1.87011 6.260344,3.97377 3.11683,2.10367 10.22111,6.87461 15.78728,10.60208 5.56617,3.72747 10.12031,6.82631 10.12031,6.8863 0,0.0974 -4.70888,3.23918 -23.4,15.61259 -3.04734,2.01732 -6.202494,3.94016 -7.011453,4.27297 -1.391855,0.57262 -3.551127,0.7797 -4.513544,0.43287 z M 56.570655,45.758462 c 4.90911,-3.28596 9.13402,-6.21618 9.38868,-6.51161 0.63123,-0.73228 0.58264,-1.17669 -0.21598,-1.97531 -0.5296,-0.5296 -0.84914,-0.64497 -1.45227,-0.52434 -0.68505,0.137 -3.7979,2.17487 -13.82916,9.0534 -2.075771,1.42339 -3.094803,1.96422 -3.704162,1.96595 -0.651388,0.002 -2.398142,-1.04163 -7.759634,-4.63545 -3.805459,-2.55081 -6.986644,-4.81407 -7.0693,-5.02946 -0.240898,-0.62778 0.02433,-1.00014 1.363137,-1.91373 1.791031,-1.22219 2.494992,-1.14182 4.859655,0.55485 4.704987,3.37588 7.991397,5.46516 8.596608,5.46516 0.921416,0 1.979142,-0.63418 7.635076,-4.57777 5.32342,-3.71174 5.94596,-4.35847 5.38361,-5.5927 -0.27942,-0.61326 -3.36597,-2.8931 -10.360764,-7.65287 -2.433386,-1.65585 -3.148711,-1.64261 -5.605672,0.10379 -1.018645,0.72405 -2.68552,1.90361 -3.704166,2.62125 -1.018646,0.71764 -2.983177,2.13592 -4.365625,3.15174 -5.393188,3.96289 -6.888662,4.90872 -7.75752,4.90632 -0.614998,-0.002 -1.766641,-0.62116 -4.279448,-2.30187 -2.965392,-1.98344 -3.591528,-2.29956 -4.554753,-2.29956 -1.219206,0 -1.772646,0.56804 -1.614996,1.65761 0.103707,0.71674 -0.132441,0.54927 13.833564,9.81011 14.559707,9.654523 14.630891,9.698953 15.537649,9.698953 0.537718,0 3.27465,-1.69002 9.675471,-5.974463 z m -12.802076,-9.17927 c -1.292142,-0.91299 -2.773902,-1.92117 -3.292799,-2.24041 -0.518897,-0.31924 -1.160408,-0.82018 -1.425578,-1.11319 -0.622805,-0.68819 -0.43862,-0.91205 2.344833,-2.84997 4.331688,-3.01585 4.721069,-3.24865 5.408594,-3.23366 0.435072,0.009 2.05608,0.94875 4.272896,2.47584 2.8918,1.99206 3.57187,2.58011 3.57187,3.08855 0,0.50891 -0.67745,1.09292 -3.57187,3.07922 -2.265935,1.555 -3.825384,2.45164 -4.265238,2.4524 -0.42612,7.4e-4 -1.598858,-0.6386 -3.042708,-1.65878 z m 66.258961,18.743953 c -1.33822,-0.51643 -2.46794,-1.3916 -2.87714,-2.22884 -0.32414,-0.66318 -0.46508,-3.423423 -0.49848,-9.761903 l -0.0129,-2.4474 h -1.56586 c -2.38281,0 -2.40289,-0.019 -2.40289,-2.27726 v -1.95607 h 1.9513 1.95131 l 0.16536,-0.82682 c 0.091,-0.45475 0.16537,-1.82397 0.16537,-3.04271 v -2.21589 l 1.12448,-0.002 c 0.61846,-0.001 1.74955,-0.0774 2.51354,-0.16914 l 1.38906,-0.16685 v 3.21186 3.21185 h 2.78925 2.78926 l -0.0773,2.05052 -0.0773,2.05052 -2.71198,0.0754 -2.71198,0.0754 v 4.75324 c 0,5.959263 0.032,6.011553 3.57187,5.831803 0.58209,-0.0296 1.2667,-0.11375 1.52136,-0.1871 0.4117,-0.11858 0.46302,0.0868 0.46302,1.85322 0,1.1884 -0.11983,2.06065 -0.29823,2.17091 -0.62898,0.38873 -6.15242,0.38684 -7.16117,-0.002 z m 31.13961,0.008 c -1.66458,-0.52643 -2.76074,-1.17992 -4.13423,-2.46466 -1.59981,-1.49643 -2.35083,-3.370233 -2.5446,-6.348783 -0.32159,-4.94337 2.01135,-8.41186 6.56806,-9.76506 2.00875,-0.59653 6.27207,-0.41133 7.94836,0.34529 1.42758,0.64437 3.16556,2.1426 3.94108,3.39741 0.73521,1.1896 1.39815,4.46925 1.18843,5.87935 l -0.16724,1.12448 h -6.87126 c -6.18718,0 -6.88821,0.0442 -7.04159,0.44389 -0.29381,0.76564 0.82058,2.281633 2.2021,2.995693 1.12231,0.58009 1.606,0.6599 3.93177,0.64876 2.34277,-0.0112 4.57314,-0.38498 6.29005,-1.05409 0.41613,-0.16217 0.46302,0.0227 0.46302,1.82544 0,1.92418 -0.0299,2.02132 -0.73294,2.3849 -1.80779,0.93485 -8.77101,1.30529 -11.04101,0.58738 z m 7.65924,-12.127573 c -0.10341,-0.47081 -0.35797,-1.1154 -0.56569,-1.43241 -0.95593,-1.45895 -4.43817,-2.01087 -6.19896,-0.98251 -0.99779,0.58274 -2.08522,2.03296 -2.08522,2.78089 0,0.45787 0.29666,0.49004 4.51894,0.49004 h 4.51894 z m 11.52845,11.902373 c -0.64078,-0.32742 -1.41014,-0.93134 -1.70971,-1.34203 -0.52755,-0.72328 -0.54698,-1.11479 -0.61865,-12.468833 l -0.074,-11.7221 2.45525,-0.12679 c 1.35039,-0.0697 2.55507,-0.0709 2.67708,-0.003 0.12201,0.0683 0.18552,4.88683 0.14112,10.70791 l -0.0807,10.583783 0.6158,0.49865 c 0.33869,0.27425 0.9598,0.49864 1.38024,0.49864 h 0.76444 v 1.82378 c 0,2.13179 -0.0161,2.14497 -2.61141,2.14497 -1.31851,0 -2.07371,-0.15295 -2.93944,-0.59531 z m 11.11676,0.28466 c -1.39113,-0.39913 -2.28557,-1.15716 -2.7577,-2.33713 -0.36939,-0.92321 -0.42696,-2.57887 -0.42696,-12.278993 v -11.2119 l 2.05052,-0.16394 c 3.48992,-0.27902 3.1046,-1.5931 3.13684,10.69766 l 0.028,10.669943 0.59664,0.48313 c 0.32815,0.26572 0.94064,0.48313 1.36108,0.48313 h 0.76444 v 1.82122 c 0,1.66502 -0.0511,1.83491 -0.59532,1.98077 -0.87623,0.23482 -3.10663,0.15763 -4.15752,-0.14389 z m 19.96638,0.13102 c -0.29105,-0.065 -1.15425,-0.29268 -1.91823,-0.50587 l -1.38906,-0.38762 v -2.14013 c 0,-2.09986 0.0112,-2.13652 0.59531,-1.94825 2.70438,0.8717 4.29703,1.16388 6.41614,1.17709 2.86768,0.0179 4.18369,-0.47957 4.31644,-1.63156 0.11884,-1.031393 -1.02783,-1.638793 -4.14446,-2.195373 -3.51677,-0.62803 -5.10426,-1.26587 -6.21753,-2.49812 -1.98305,-2.19501 -1.46908,-5.74977 1.08346,-7.49346 1.89262,-1.29289 3.42165,-1.59489 7.28844,-1.43954 1.92197,0.0772 4.03027,0.30582 4.68511,0.508 l 1.19063,0.36761 0.0779,2.0736 c 0.0771,2.05209 0.0716,2.07177 -0.52916,1.8969 -2.27614,-0.66256 -4.5627,-0.98132 -6.48679,-0.90429 -1.80549,0.0723 -2.27271,0.18427 -2.7467,0.65834 -0.74627,0.7464 -0.51673,1.7669 0.48713,2.16571 0.40203,0.15972 2.01956,0.54167 3.59449,0.84879 3.35534,0.6543 4.3344,1.02432 5.56183,2.10202 1.07853,0.94696 1.56998,2.56602 1.32388,4.361473 -0.31657,2.30964 -2.11302,4.02835 -4.97617,4.76086 -1.48238,0.37926 -6.86111,0.52584 -8.21264,0.22382 z m -127.460215,-1.6355 c -1.41728,-0.82046 -2.57814,-1.56324 -2.57969,-1.65063 -0.002,-0.0874 0.61837,-0.54503 1.37759,-1.01699 l 1.38039,-0.8581 1.067,0.52248 c 0.58685,0.28737 1.88586,0.99952 2.88667,1.58256 l 1.81967,1.06008 -1.41926,0.95578 c -0.78059,0.52568 -1.53991,0.94246 -1.68738,0.92617 -0.14746,-0.0163 -1.42771,-0.7009 -2.84499,-1.52135 z M 120.8008,46.604982 c -0.10696,-4.85766 -0.11441,-9.08438 -0.0166,-9.39271 0.16469,-0.51888 0.36366,-0.5606 2.67364,-0.5606 h 2.49572 v 1.21124 1.21125 l 1.03516,-0.88606 c 1.20443,-1.03095 3.17246,-1.80419 4.58723,-1.80232 l 0.99219,10e-4 v 2.3457 2.34569 l -1.78594,0.1282 c -2.04891,0.14708 -3.72501,0.88576 -4.42139,1.94858 -0.37594,0.57376 -0.4328,1.01848 -0.29075,2.27407 0.0971,0.85846 0.0931,3.46139 -0.009,5.784293 l -0.18561,4.22347 h -2.4401 -2.4401 z m 58.18986,8.499633 c -0.0702,-0.18287 -0.0962,-4.37982 -0.0578,-9.326573 l 0.0697,-8.99408 2.57969,-0.0757 2.57969,-0.0757 v 9.40229 9.402293 h -2.52185 c -1.78049,0 -2.55935,-0.0977 -2.64943,-0.33248 z M 24.820215,54.294655 c -0.834771,-0.46307 -1.517244,-0.90147 -1.516607,-0.97423 0.0018,-0.20735 5.153059,-3.175 5.511168,-3.175 0.329237,0 1.291679,0.55373 2.369304,1.36315 l 0.612767,0.46026 -1.096463,0.69216 c -0.603054,0.3807 -1.831299,1.09344 -2.729433,1.58388 l -1.632971,0.89172 z m 48.62696,-6.265123 c -1.44786,-0.82946 -2.67366,-1.63167 -2.724,-1.78269 -0.0862,-0.25871 2.33833,-1.92225 2.80163,-1.92225 0.11843,0 1.43991,0.73338 2.93662,1.62974 l 2.7213,1.62974 -0.6255,0.47375 c -0.34402,0.26057 -1.04222,0.70012 -1.55154,0.97679 l -0.92604,0.50304 z m -57.758673,0.3691 c -0.763985,-0.50301 -1.388674,-1.00036 -1.388199,-1.10524 8.8e-4,-0.19426 4.160622,-2.66734 5.11816,-3.04288 0.386821,-0.1517 0.910006,0.0485 1.975367,0.75584 l 1.449184,0.96221 -0.766058,0.46166 c -1.896966,1.1432 -4.937149,2.91966 -4.966753,2.90221 -0.01795,-0.0106 -0.657717,-0.4308 -1.421701,-0.9338 z M 179.64367,33.761612 c -1.72818,-1.72817 -0.53792,-4.25369 2.00472,-4.25369 1.57777,0 2.77813,0.9894 2.77813,2.28987 0,1.19694 -0.3654,1.84519 -1.31762,2.3376 -1.26998,0.65673 -2.57554,0.51591 -3.46523,-0.37378 z"
       id="path1" /></g></svg>
